<?xml version="1.0" encoding="utf-8"?>
<!-- Generator: Adobe Illustrator 16.0.0, SVG Export Plug-In . SVG Version: 6.00 Build 0)  -->
<!DOCTYPE svg PUBLIC "-//W3C//DTD SVG 1.1//EN" "http://www.w3.org/Graphics/SVG/1.1/DTD/svg11.dtd">
<svg version="1.1" id="Capa_1" xmlns="http://www.w3.org/2000/svg" xmlns:xlink="http://www.w3.org/1999/xlink" x="0px" y="0px"
	 width="326.708px" height="41.225px" viewBox="0 0 326.708 41.225" enable-background="new 0 0 326.708 41.225"
	 xml:space="preserve">
<g id="plantilla" display="none">
</g>
<polygon fill="#ADCCB9" points="19.05,32.939 15.627,27.017 7.408,41.226 14.445,41.226 19.144,33.101 "/>
<polygon opacity="0.7" fill="#ADCCB9" enable-background="new    " points="11.923,20.613 15.627,27.017 7.408,41.226 0,41.226 "/>
<g opacity="0.2" enable-background="new    ">
	<g>
		<g>
			<defs>
				<rect id="SVGID_1_" x="7.408" y="32.939" width="11.735" height="8.287"/>
			</defs>
			<clipPath id="SVGID_2_">
				<use xlink:href="#SVGID_1_"  overflow="visible"/>
			</clipPath>
			<polygon clip-path="url(#SVGID_2_)" fill="#414042" points="14.445,40.904 7.595,40.904 7.408,41.226 14.445,41.226 
				19.144,33.101 19.05,32.939 			"/>
		</g>
	</g>
</g>
<g opacity="0.2" enable-background="new    ">
	<g>
		<g>
			<defs>
				<rect id="SVGID_3_" y="40.904" width="7.595" height="0.322"/>
			</defs>
			<clipPath id="SVGID_4_">
				<use xlink:href="#SVGID_3_"  overflow="visible"/>
			</clipPath>
			<polygon clip-path="url(#SVGID_4_)" fill="#263238" points="0.187,40.904 0,41.226 7.408,41.226 7.595,40.904 			"/>
		</g>
	</g>
</g>
<g opacity="0.2" enable-background="new    ">
	<g>
		<g>
			<defs>
				<rect id="SVGID_5_" y="20.613" width="12.017" height="20.613"/>
			</defs>
			<clipPath id="SVGID_6_">
				<use xlink:href="#SVGID_5_"  overflow="visible"/>
			</clipPath>
			<polygon clip-path="url(#SVGID_6_)" fill="#FFFFFF" points="0,41.226 0.187,41.226 12.017,20.774 11.923,20.613 			"/>
		</g>
	</g>
</g>
<g>
	<g>
		<defs>
			<polygon id="SVGID_7_" points="19.144,33.101 19.144,33.101 15.627,27.017 14.764,28.507 			"/>
		</defs>
		<clipPath id="SVGID_8_">
			<use xlink:href="#SVGID_7_"  overflow="visible"/>
		</clipPath>
		<defs>
			<filter id="Adobe_OpacityMaskFilter" filterUnits="userSpaceOnUse" x="14.764" y="27.017" width="4.38" height="6.084">
				<feColorMatrix  type="matrix" values="1 0 0 0 0  0 1 0 0 0  0 0 1 0 0  0 0 0 1 0"/>
			</filter>
		</defs>
		<mask maskUnits="userSpaceOnUse" x="14.764" y="27.017" width="4.38" height="6.084" id="SVGID_9_">
			<g filter="url(#Adobe_OpacityMaskFilter)">
				<g>
					<defs>
						<polygon id="SVGID_10_" points="19.144,33.101 19.144,33.101 15.627,27.017 14.764,28.507 						"/>
					</defs>
					<clipPath id="SVGID_11_" clip-path="url(#SVGID_8_)">
						<use xlink:href="#SVGID_10_"  overflow="visible"/>
					</clipPath>
					
						<radialGradient id="SVGID_12_" cx="-671.5991" cy="86.9729" r="0.2538" gradientTransform="matrix(44.2635 0 0 -44.2635 29746.4199 3882.7551)" gradientUnits="userSpaceOnUse">
						<stop  offset="0" style="stop-color:#333333"/>
						<stop  offset="1" style="stop-color:#050505"/>
					</radialGradient>
					<rect x="14.764" y="27.017" clip-path="url(#SVGID_11_)" fill="url(#SVGID_12_)" width="4.38" height="6.084"/>
				</g>
			</g>
		</mask>
		<rect x="14.764" y="27.017" clip-path="url(#SVGID_8_)" mask="url(#SVGID_9_)" fill="#58595B" width="4.38" height="6.084"/>
	</g>
</g>
<g>
	<g>
		<defs>
			<polygon id="SVGID_14_" points="14.764,28.507 15.627,27.017 11.923,20.613 10.155,23.673 			"/>
		</defs>
		<clipPath id="SVGID_15_">
			<use xlink:href="#SVGID_14_"  overflow="visible"/>
		</clipPath>
		<defs>
			<filter id="Adobe_OpacityMaskFilter_1_" filterUnits="userSpaceOnUse" x="10.155" y="20.613" width="5.472" height="7.895">
				<feColorMatrix  type="matrix" values="1 0 0 0 0  0 1 0 0 0  0 0 1 0 0  0 0 0 1 0"/>
			</filter>
		</defs>
		<mask maskUnits="userSpaceOnUse" x="10.155" y="20.613" width="5.472" height="7.895" id="SVGID_13_">
			<g filter="url(#Adobe_OpacityMaskFilter_1_)">
				<g>
					<defs>
						<polygon id="SVGID_16_" points="14.764,28.507 15.627,27.017 11.923,20.613 10.155,23.673 						"/>
					</defs>
					<clipPath id="SVGID_17_" clip-path="url(#SVGID_15_)">
						<use xlink:href="#SVGID_16_"  overflow="visible"/>
					</clipPath>
					
						<radialGradient id="SVGID_18_" cx="-671.6548" cy="87.0247" r="0.3243" gradientTransform="matrix(44.6228 0 0 -44.6228 29990.1895 3916.3948)" gradientUnits="userSpaceOnUse">
						<stop  offset="0" style="stop-color:#333333"/>
						<stop  offset="1" style="stop-color:#050505"/>
					</radialGradient>
					<rect x="10.154" y="20.613" clip-path="url(#SVGID_17_)" fill="url(#SVGID_18_)" width="5.473" height="7.895"/>
				</g>
			</g>
		</mask>
		
			<radialGradient id="SVGID_19_" cx="-671.6543" cy="87.0266" r="0.3201" gradientTransform="matrix(44.6228 0 0 -44.6228 29990.1582 3916.3635)" gradientUnits="userSpaceOnUse">
			<stop  offset="0" style="stop-color:#263238"/>
			<stop  offset="1" style="stop-color:#263238"/>
		</radialGradient>
		
			<rect x="10.155" y="20.613" clip-path="url(#SVGID_15_)" mask="url(#SVGID_13_)" fill="url(#SVGID_19_)" width="5.472" height="7.895"/>
	</g>
</g>
<polygon fill="#ADCCB9" points="7.408,-0.001 0,-0.001 19.144,33.101 22.845,26.7 22.848,26.693 "/>
<path opacity="0.7" fill="#ADCCB9" enable-background="new    " d="M25.247,22.544c0.692-1.193,0.692-2.67,0-3.864L14.445-0.001
	H7.408l15.44,26.693L25.247,22.544z"/>
<g opacity="0.2" enable-background="new    ">
	<g>
		<g>
			<defs>
				<rect id="SVGID_20_" y="-0.001" width="22.848" height="33.102"/>
			</defs>
			<clipPath id="SVGID_21_">
				<use xlink:href="#SVGID_20_"  overflow="visible"/>
			</clipPath>
			<polygon clip-path="url(#SVGID_21_)" fill="#1A237E" points="22.848,26.693 22.754,26.534 19.144,32.777 0.187,-0.001 0,-0.001 
				19.144,33.101 22.845,26.7 			"/>
		</g>
	</g>
</g>
<g opacity="0.2" enable-background="new    ">
	<g>
		<g>
			<defs>
				<rect id="SVGID_22_" y="-0.001" width="25.76" height="20.773"/>
			</defs>
			<clipPath id="SVGID_23_">
				<use xlink:href="#SVGID_22_"  overflow="visible"/>
			</clipPath>
			<path clip-path="url(#SVGID_23_)" fill="#FFFFFF" d="M14.445,0.322l10.802,18.681c0.319,0.551,0.483,1.158,0.509,1.771
				c0.029-0.722-0.135-1.45-0.509-2.094L14.445-0.002H0L0.187,0.32h14.258V0.322z"/>
		</g>
	</g>
</g>
<g opacity="0.2" enable-background="new    ">
	<g>
		<g>
			<defs>
				<rect id="SVGID_24_" x="22.754" y="20.449" width="3.006" height="6.243"/>
			</defs>
			<clipPath id="SVGID_25_">
				<use xlink:href="#SVGID_24_"  overflow="visible"/>
			</clipPath>
			<path clip-path="url(#SVGID_25_)" fill="#3E2723" d="M22.848,26.693l2.399-4.146c0.374-0.645,0.538-1.373,0.509-2.096
				c-0.025,0.612-0.189,1.225-0.509,1.773l-2.493,4.311L22.848,26.693z"/>
		</g>
	</g>
</g>
<g>
	<path fill="#ADCCB9" d="M185.263,27.116c-0.396,3.385-1.646,5.996-3.746,7.834c-2.103,1.838-4.896,2.758-8.384,2.758
		c-3.778,0-6.807-1.354-9.086-4.064c-2.276-2.709-3.416-6.336-3.416-10.877v-3.076c0-2.974,0.53-5.588,1.593-7.844
		c1.062-2.256,2.566-3.988,4.516-5.197c1.947-1.208,4.203-1.812,6.768-1.812c3.397,0,6.123,0.947,8.174,2.846
		c2.051,1.896,3.244,4.521,3.582,7.877h-4.24c-0.367-2.557-1.161-4.408-2.385-5.554c-1.223-1.146-2.934-1.721-5.131-1.721
		c-2.695,0-4.809,0.997-6.34,2.991c-1.529,1.994-2.295,4.831-2.295,8.511v3.102c0,3.475,0.725,6.238,2.176,8.291
		c1.449,2.053,3.479,3.08,6.086,3.08c2.344,0,4.142-0.531,5.395-1.596c1.252-1.061,2.083-2.91,2.494-5.547h4.239V27.116z"/>
	<path fill="#ADCCB9" d="M189.306,25.159c0-2.328,0.457-4.423,1.372-6.282c0.916-1.86,2.189-3.298,3.824-4.308
		c1.633-1.012,3.496-1.517,5.592-1.517c3.236,0,5.855,1.12,7.855,3.361c1.998,2.24,2.998,5.224,2.998,8.942v0.287
		c0,2.312-0.443,4.391-1.328,6.229c-0.888,1.84-2.154,3.271-3.803,4.297c-1.646,1.023-3.541,1.537-5.68,1.537
		c-3.223,0-5.834-1.121-7.834-3.361c-2-2.242-2.998-5.207-2.998-8.898L189.306,25.159L189.306,25.159z M193.392,25.646
		c0,2.637,0.612,4.752,1.835,6.35c1.225,1.598,2.859,2.395,4.911,2.395c2.065,0,3.706-0.809,4.922-2.428
		c1.216-1.617,1.823-3.885,1.823-6.801c0-2.605-0.618-4.721-1.856-6.34c-1.237-1.618-2.882-2.428-4.933-2.428
		c-2.008,0-3.627,0.799-4.856,2.396C194.008,20.387,193.392,22.671,193.392,25.646z M201.939,3.562h4.922l-5.889,6.46l-3.274-0.011
		L201.939,3.562z"/>
	<path fill="#ADCCB9" d="M227.538,17.141c-0.615-0.104-1.281-0.154-2-0.154c-2.666,0-4.476,1.136-5.428,3.406v16.876h-4.064V13.493
		H220l0.066,2.747c1.332-2.124,3.223-3.187,5.668-3.187c0.791,0,1.393,0.103,1.803,0.308V17.141z"/>
	<path fill="#ADCCB9" d="M229.866,25.183c0-3.646,0.863-6.581,2.592-8.8c1.729-2.221,3.992-3.329,6.791-3.329
		c2.782,0,4.986,0.952,6.613,2.855V3.518h4.064v33.751h-3.735l-0.198-2.549c-1.625,1.992-3.889,2.986-6.789,2.986
		c-2.754,0-4.998-1.127-6.734-3.383c-1.735-2.256-2.604-5.201-2.604-8.834V25.183z M233.931,25.646c0,2.695,0.557,4.805,1.67,6.328
		c1.112,1.521,2.651,2.285,4.614,2.285c2.578,0,4.459-1.158,5.646-3.475v-10.92c-1.217-2.241-3.084-3.36-5.604-3.36
		c-1.992,0-3.545,0.769-4.658,2.307S233.931,22.628,233.931,25.646z"/>
	<path fill="#ADCCB9" d="M255.157,25.159c0-2.328,0.457-4.423,1.373-6.282c0.915-1.86,2.189-3.298,3.823-4.308
		c1.633-1.012,3.497-1.517,5.592-1.517c3.237,0,5.854,1.12,7.854,3.361c2,2.24,3,5.224,3,8.942v0.287
		c0,2.312-0.443,4.391-1.33,6.229c-0.887,1.84-2.152,3.271-3.801,4.297c-1.647,1.023-3.541,1.537-5.681,1.537
		c-3.223,0-5.834-1.121-7.833-3.361c-2-2.242-2.999-5.207-2.999-8.898L255.157,25.159L255.157,25.159z M259.243,25.646
		c0,2.637,0.612,4.752,1.836,6.35c1.223,1.598,2.859,2.395,4.91,2.395c2.064,0,3.706-0.809,4.922-2.428
		c1.217-1.617,1.824-3.885,1.824-6.801c0-2.605-0.619-4.721-1.857-6.34c-1.236-1.618-2.881-2.428-4.933-2.428
		c-2.007,0-3.626,0.799-4.856,2.396C259.859,20.387,259.243,22.671,259.243,25.646z"/>
	<path fill="#ADCCB9" d="M302.024,25.646c0,3.633-0.835,6.551-2.505,8.756c-1.67,2.203-3.911,3.307-6.724,3.307
		c-3.004,0-5.326-1.062-6.965-3.186l-0.199,2.746h-3.734V3.518h4.064v12.59c1.641-2.035,3.903-3.054,6.789-3.054
		c2.887,0,5.152,1.092,6.801,3.273c1.648,2.184,2.473,5.172,2.473,8.967V25.646z M297.959,25.183c0-2.77-0.535-4.907-1.604-6.416
		s-2.607-2.263-4.613-2.263c-2.682,0-4.607,1.244-5.779,3.733v10.283c1.244,2.492,3.187,3.736,5.822,3.736
		c1.948,0,3.465-0.754,4.549-2.264S297.959,28.216,297.959,25.183z"/>
	<path fill="#ADCCB9" d="M321.821,37.269c-0.234-0.469-0.425-1.305-0.57-2.506c-1.891,1.963-4.146,2.943-6.769,2.943
		c-2.344,0-4.267-0.662-5.769-1.986c-1.502-1.326-2.252-3.008-2.252-5.043c0-2.477,0.94-4.398,2.824-5.77
		c1.881-1.369,4.528-2.055,7.942-2.055h3.955v-1.867c0-1.421-0.427-2.553-1.274-3.396c-0.851-0.843-2.103-1.264-3.758-1.264
		c-1.449,0-2.666,0.366-3.646,1.099c-0.981,0.732-1.474,1.619-1.474,2.658h-4.086c0-1.187,0.421-2.332,1.263-3.438
		c0.844-1.106,1.985-1.981,3.428-2.626c1.443-0.646,3.029-0.967,4.758-0.967c2.738,0,4.886,0.685,6.438,2.055
		c1.553,1.369,2.358,3.256,2.418,5.657v10.943c0,2.184,0.277,3.918,0.834,5.207v0.352h-4.262V37.269z M315.075,34.171
		c1.275,0,2.483-0.33,3.627-0.99c1.143-0.658,1.969-1.518,2.482-2.57v-4.877h-3.188c-4.979,0-7.471,1.457-7.471,4.371
		c0,1.275,0.426,2.271,1.273,2.988C312.649,33.81,313.743,34.171,315.075,34.171z"/>
</g>
<g>
	<path fill="#ADCCB9" d="M78.089,4.603h9.854c10.036,0,16.336,6.66,16.336,16.007c0,9.39-6.303,16.007-16.336,16.007h-9.854V4.603z
		 M88.114,31.767c6.985,0,11.315-3.877,11.315-11.157c0-7.237-4.33-11.157-11.315-11.157h-5.175v22.314H88.114z"/>
	<path fill="#ADCCB9" d="M74.04,19.157H58.688v4.754h10.824c-0.358,2.426-1.198,4.316-2.458,5.578
		c-1.604,1.605-4.109,3.369-8.505,3.369c-6.78,0-12.082-5.467-12.082-12.246S51.769,8.367,58.549,8.367
		c3.655,0,6.328,1.439,8.299,3.289l3.247-3.247c-2.754-2.632-6.409-4.645-11.546-4.645c-9.285,0-17.093,7.559-17.093,16.848
		c0,9.285,7.808,16.85,17.093,16.85c5.011,0,8.792-1.645,11.752-4.727c3.04-3.041,3.987-7.312,3.987-10.766
		C74.288,20.9,74.204,19.979,74.04,19.157"/>
	<path fill="#ADCCB9" d="M140.006,19.157h-15.353v4.754h10.825c-0.358,2.426-1.198,4.316-2.458,5.578
		c-1.604,1.605-4.109,3.369-8.506,3.369c-6.779,0-12.081-5.467-12.081-12.246s5.302-12.245,12.081-12.245
		c3.655,0,6.329,1.439,8.3,3.289l3.246-3.247c-2.754-2.632-6.409-4.645-11.546-4.645c-9.285,0-17.092,7.559-17.092,16.848
		c0,9.285,7.807,16.85,17.092,16.85c5.013,0,8.792-1.645,11.753-4.727c3.04-3.041,3.987-7.312,3.987-10.766
		C140.255,20.9,140.171,19.979,140.006,19.157"/>
</g>
</svg>
