<?xml version="1.0" encoding="utf-8"?>
<!-- Generator: Adobe Illustrator 16.0.0, SVG Export Plug-In . SVG Version: 6.00 Build 0)  -->
<!DOCTYPE svg PUBLIC "-//W3C//DTD SVG 1.1//EN" "http://www.w3.org/Graphics/SVG/1.1/DTD/svg11.dtd">
<svg version="1.1" id="Capa_1" xmlns="http://www.w3.org/2000/svg" xmlns:xlink="http://www.w3.org/1999/xlink" x="0px" y="0px"
	 width="200px" height="107.562px" viewBox="0 0 200 107.562" enable-background="new 0 0 200 107.562" xml:space="preserve">
<g>
	<g>
		<rect x="96.797" y="40.155" fill="none" width="120.37" height="27.259"/>
	</g>
	<g>
		<defs>
			<rect id="SVGID_3_" x="25.147" y="41.039" width="60.769" height="21.394"/>
		</defs>
		<clipPath id="SVGID_5_">
			<use xlink:href="#SVGID_3_"  overflow="visible"/>
		</clipPath>
		<g clip-path="url(#SVGID_5_)">
			<path fill="#49809B" d="M47.834,41.551h6.037c6.148,0,10.008,4.08,10.008,9.806c0,5.751-3.861,9.806-10.008,9.806h-6.037V41.551z
				 M53.976,58.191c4.279,0,6.932-2.375,6.932-6.834c0-4.434-2.653-6.835-6.932-6.835h-3.169v13.669H53.976z"/>
		</g>
	</g>
	<g>
		<defs>
			<rect id="SVGID_6_" x="25.147" y="41.039" width="60.769" height="21.394"/>
		</defs>
		<clipPath id="SVGID_7_">
			<use xlink:href="#SVGID_6_"  overflow="visible"/>
		</clipPath>
		<g clip-path="url(#SVGID_7_)">
			<path fill="#49809B" d="M45.354,50.467h-9.403v2.912h6.63c-0.219,1.485-0.734,2.644-1.506,3.418
				c-0.983,0.982-2.517,2.062-5.21,2.062c-4.152,0-7.4-3.349-7.4-7.501s3.248-7.501,7.4-7.501c2.239,0,3.876,0.882,5.084,2.015
				l1.99-1.988c-1.688-1.612-3.926-2.846-7.074-2.846c-5.687,0-10.47,4.63-10.47,10.32c0,5.688,4.784,10.32,10.47,10.32
				c3.071,0,5.386-1.006,7.2-2.895c1.861-1.862,2.441-4.479,2.441-6.595C45.506,51.534,45.456,50.969,45.354,50.467"/>
		</g>
	</g>
	<g>
		<g enable-background="new    ">
			<path fill="#49809B" d="M113.486,54.612c-0.242,2.072-1.007,3.671-2.294,4.797c-1.288,1.127-3,1.689-5.135,1.689
				c-2.316,0-4.172-0.829-5.566-2.489c-1.396-1.66-2.093-3.881-2.093-6.662v-1.885c0-1.821,0.326-3.424,0.976-4.806
				c0.651-1.382,1.573-2.442,2.766-3.184c1.193-0.739,2.576-1.11,4.146-1.11c2.082,0,3.751,0.581,5.008,1.744
				c1.256,1.161,1.987,2.771,2.193,4.825h-2.598c-0.225-1.566-0.711-2.701-1.46-3.402c-0.75-0.702-1.797-1.054-3.144-1.054
				c-1.65,0-2.946,0.61-3.883,1.833c-0.938,1.221-1.406,2.958-1.406,5.213v1.899c0,2.128,0.443,3.821,1.332,5.079
				c0.888,1.257,2.132,1.886,3.729,1.886c1.435,0,2.536-0.325,3.303-0.977c0.769-0.649,1.278-1.783,1.528-3.397H113.486z"/>
			<path fill="#49809B" d="M115.963,53.413c0-1.426,0.279-2.709,0.841-3.849c0.562-1.139,1.341-2.02,2.343-2.638
				c1.001-0.62,2.142-0.93,3.427-0.93c1.98,0,3.586,0.687,4.811,2.06c1.224,1.373,1.836,3.199,1.836,5.478v0.176
				c0,1.418-0.271,2.689-0.812,3.815c-0.543,1.126-1.319,2.003-2.33,2.631c-1.008,0.629-2.169,0.942-3.479,0.942
				c-1.974,0-3.573-0.688-4.798-2.059c-1.225-1.373-1.838-3.19-1.838-5.451V53.413z M118.467,53.71c0,1.615,0.374,2.912,1.124,3.89
				c0.749,0.979,1.752,1.467,3.008,1.467c1.266,0,2.271-0.495,3.015-1.487c0.746-0.991,1.117-2.379,1.117-4.166
				c0-1.597-0.379-2.891-1.138-3.883c-0.757-0.991-1.765-1.487-3.02-1.487c-1.23,0-2.222,0.489-2.976,1.468
				C118.843,50.488,118.467,51.888,118.467,53.71z M123.702,40.182h3.016l-3.607,3.957l-2.006-0.006L123.702,40.182z"/>
			<path fill="#49809B" d="M139.383,48.501c-0.377-0.062-0.785-0.095-1.226-0.095c-1.632,0-2.741,0.695-3.324,2.086v10.337h-2.49
				V46.266h2.424l0.04,1.683c0.816-1.301,1.975-1.952,3.473-1.952c0.484,0,0.852,0.063,1.104,0.188V48.501z"/>
			<path fill="#49809B" d="M140.81,53.427c0-2.234,0.53-4.031,1.589-5.391s2.445-2.039,4.158-2.039c1.704,0,3.056,0.584,4.052,1.75
				v-7.592h2.49v20.674h-2.289l-0.12-1.561c-0.996,1.221-2.382,1.83-4.159,1.83c-1.687,0-3.062-0.69-4.125-2.072
				c-1.064-1.382-1.596-3.186-1.596-5.411V53.427z M143.3,53.71c0,1.65,0.341,2.943,1.023,3.877
				c0.683,0.933,1.624,1.399,2.825,1.399c1.58,0,2.733-0.709,3.46-2.127V50.17c-0.744-1.373-1.889-2.059-3.432-2.059
				c-1.221,0-2.171,0.47-2.854,1.412S143.3,51.861,143.3,53.71z"/>
			<path fill="#49809B" d="M156.302,53.413c0-1.426,0.281-2.709,0.843-3.849c0.56-1.139,1.341-2.02,2.341-2.638
				c1-0.62,2.143-0.93,3.425-0.93c1.983,0,3.588,0.687,4.812,2.06c1.226,1.373,1.838,3.199,1.838,5.478v0.176
				c0,1.418-0.272,2.689-0.814,3.815c-0.544,1.126-1.319,2.003-2.329,2.631c-1.01,0.629-2.169,0.942-3.479,0.942
				c-1.974,0-3.574-0.688-4.8-2.059c-1.224-1.373-1.837-3.19-1.837-5.451V53.413z M158.806,53.71c0,1.615,0.375,2.912,1.124,3.89
				c0.748,0.979,1.752,1.467,3.009,1.467c1.265,0,2.27-0.495,3.015-1.487c0.743-0.991,1.117-2.379,1.117-4.166
				c0-1.597-0.379-2.891-1.138-3.883c-0.759-0.991-1.766-1.487-3.022-1.487c-1.229,0-2.22,0.489-2.973,1.468
				C159.182,50.488,158.806,51.888,158.806,53.71z"/>
			<path fill="#49809B" d="M185.012,53.71c0,2.226-0.512,4.013-1.534,5.363c-1.023,1.35-2.396,2.025-4.118,2.025
				c-1.841,0-3.262-0.65-4.267-1.951l-0.123,1.682h-2.287V40.155h2.489v7.712c1.005-1.246,2.393-1.87,4.16-1.87
				s3.156,0.669,4.165,2.006c1.011,1.338,1.515,3.167,1.515,5.492V53.71z M182.521,53.427c0-1.695-0.327-3.005-0.981-3.93
				c-0.656-0.924-1.599-1.386-2.827-1.386c-1.643,0-2.822,0.763-3.541,2.287v6.299c0.764,1.526,1.953,2.289,3.567,2.289
				c1.193,0,2.122-0.463,2.786-1.387S182.521,55.284,182.521,53.427z"/>
			<path fill="#49809B" d="M197.139,60.829c-0.144-0.287-0.259-0.798-0.35-1.534c-1.157,1.203-2.54,1.804-4.145,1.804
				c-1.437,0-2.615-0.405-3.533-1.219c-0.921-0.812-1.381-1.841-1.381-3.088c0-1.517,0.576-2.694,1.729-3.533
				c1.154-0.839,2.775-1.258,4.866-1.258h2.423v-1.145c0-0.87-0.261-1.563-0.781-2.079c-0.521-0.517-1.287-0.774-2.301-0.774
				c-0.889,0-1.634,0.225-2.235,0.673c-0.6,0.449-0.901,0.991-0.901,1.628h-2.503c0-0.727,0.258-1.428,0.773-2.105
				c0.517-0.678,1.215-1.214,2.1-1.608c0.885-0.396,1.855-0.593,2.913-0.593c1.679,0,2.994,0.42,3.944,1.259
				c0.952,0.839,1.445,1.994,1.48,3.466v6.703c0,1.337,0.172,2.4,0.512,3.189v0.215H197.139z M193.007,58.932
				c0.78,0,1.521-0.202,2.221-0.606c0.7-0.403,1.207-0.929,1.521-1.575v-2.987h-1.951c-3.052,0-4.577,0.893-4.577,2.679
				c0,0.78,0.261,1.391,0.78,1.83C191.521,58.712,192.19,58.932,193.007,58.932z"/>
		</g>
		<g>
			<polygon fill="#49809B" points="11.67,60.325 9.573,56.696 4.538,65.401 8.849,65.401 11.728,60.423 			"/>
		</g>
		<g opacity="0.7" enable-background="new    ">
			<polygon fill="#49809B" points="7.304,52.774 9.573,56.696 4.538,65.401 0,65.401 			"/>
		</g>
		<g opacity="0.2" enable-background="new    ">
			<g>
				<g>
					<defs>
						<rect id="SVGID_8_" x="4.538" y="60.325" width="7.189" height="5.076"/>
					</defs>
					<clipPath id="SVGID_9_">
						<use xlink:href="#SVGID_8_"  overflow="visible"/>
					</clipPath>
					<g clip-path="url(#SVGID_9_)">
						<polygon fill="#414042" points="8.849,65.203 4.653,65.203 4.538,65.401 8.849,65.401 11.728,60.423 11.67,60.325 						"/>
					</g>
				</g>
			</g>
		</g>
		<g opacity="0.2" enable-background="new    ">
			<g>
				<g>
					<defs>
						<rect id="SVGID_10_" y="65.203" width="4.653" height="0.198"/>
					</defs>
					<clipPath id="SVGID_11_">
						<use xlink:href="#SVGID_10_"  overflow="visible"/>
					</clipPath>
					<g clip-path="url(#SVGID_11_)">
						<polygon fill="#263238" points="0.115,65.203 0,65.401 4.538,65.401 4.653,65.203 						"/>
					</g>
				</g>
			</g>
		</g>
		<g opacity="0.2" enable-background="new    ">
			<g>
				<g>
					<defs>
						<rect id="SVGID_12_" y="52.774" width="7.362" height="12.627"/>
					</defs>
					<clipPath id="SVGID_13_">
						<use xlink:href="#SVGID_12_"  overflow="visible"/>
					</clipPath>
					<g clip-path="url(#SVGID_13_)">
						<polygon fill="#FFFFFF" points="0,65.401 0.115,65.401 7.362,52.873 7.304,52.774 						"/>
					</g>
				</g>
			</g>
		</g>
		<g>
			<g>
				<defs>
					<polygon id="SVGID_14_" points="11.728,60.423 11.728,60.423 9.573,56.696 9.044,57.61 					"/>
				</defs>
				<clipPath id="SVGID_15_">
					<use xlink:href="#SVGID_14_"  overflow="visible"/>
				</clipPath>
				<defs>
					<filter id="Adobe_OpacityMaskFilter" filterUnits="userSpaceOnUse" x="9.044" y="56.696" width="2.684" height="3.727">
						<feColorMatrix  type="matrix" values="1 0 0 0 0  0 1 0 0 0  0 0 1 0 0  0 0 0 1 0"/>
					</filter>
				</defs>
				<mask maskUnits="userSpaceOnUse" x="9.044" y="56.696" width="2.684" height="3.727" id="SVGID_2_">
					<g filter="url(#Adobe_OpacityMaskFilter)">
						<g>
							<defs>
								<polygon id="SVGID_16_" points="11.728,60.423 11.728,60.423 9.573,56.696 9.044,57.61 								"/>
							</defs>
							<clipPath id="SVGID_17_" clip-path="url(#SVGID_15_)">
								<use xlink:href="#SVGID_16_"  overflow="visible"/>
							</clipPath>
							
								<radialGradient id="SVGID_18_" cx="-1655.4751" cy="529.113" r="0.2083" gradientTransform="matrix(44.2635 0 0 -44.2635 73288.8047 23480.7637)" gradientUnits="userSpaceOnUse">
								<stop  offset="0" style="stop-color:#333333"/>
								<stop  offset="1" style="stop-color:#050505"/>
							</radialGradient>
							<rect x="9.044" y="56.696" clip-path="url(#SVGID_17_)" fill="url(#SVGID_18_)" width="2.684" height="3.727"/>
						</g>
					</g>
				</mask>
				<g clip-path="url(#SVGID_15_)" mask="url(#SVGID_2_)">
					<rect x="9.044" y="56.696" fill="#58595B" width="2.684" height="3.727"/>
				</g>
			</g>
		</g>
		<g>
			<g>
				<defs>
					<polygon id="SVGID_19_" points="9.044,57.61 9.573,56.696 7.304,52.774 6.221,54.649 					"/>
				</defs>
				<clipPath id="SVGID_20_">
					<use xlink:href="#SVGID_19_"  overflow="visible"/>
				</clipPath>
				<defs>
					<filter id="Adobe_OpacityMaskFilter_1_" filterUnits="userSpaceOnUse" x="2.85" y="51.603" width="8.809" height="8.808">
						<feColorMatrix  type="matrix" values="1 0 0 0 0  0 1 0 0 0  0 0 1 0 0  0 0 0 1 0"/>
					</filter>
				</defs>
				<mask maskUnits="userSpaceOnUse" x="2.85" y="51.603" width="8.809" height="8.808" id="SVGID_1_">
					<g filter="url(#Adobe_OpacityMaskFilter_1_)">
						<g>
							<defs>
								<polygon id="SVGID_21_" points="9.044,57.61 9.573,56.696 7.304,52.774 6.221,54.649 								"/>
							</defs>
							<clipPath id="SVGID_22_" clip-path="url(#SVGID_20_)">
								<use xlink:href="#SVGID_21_"  overflow="visible"/>
							</clipPath>
							
								<radialGradient id="SVGID_23_" cx="-1655.7114" cy="529.24" r="0.1982" gradientTransform="matrix(44.6228 0 0 -44.6228 73894.1172 23676.6328)" gradientUnits="userSpaceOnUse">
								<stop  offset="0" style="stop-color:#333333"/>
								<stop  offset="1" style="stop-color:#050505"/>
							</radialGradient>
							<rect x="6.221" y="52.774" clip-path="url(#SVGID_22_)" fill="url(#SVGID_23_)" width="3.352" height="4.836"/>
						</g>
					</g>
				</mask>
				<g clip-path="url(#SVGID_20_)" mask="url(#SVGID_1_)">
					<g>
						<defs>
							<rect id="SVGID_24_" x="6.221" y="52.774" width="3.352" height="4.836"/>
						</defs>
						<clipPath id="SVGID_25_">
							<use xlink:href="#SVGID_24_"  overflow="visible"/>
						</clipPath>
						<rect x="6.221" y="52.773" clip-path="url(#SVGID_25_)" fill="#263238" width="3.351" height="4.839"/>
						<path clip-path="url(#SVGID_25_)" fill="#263238" d="M10.184,58.223v-6.062l1.475-0.558c-4.864,0-8.809,3.943-8.809,8.808
							l2.76-2.188H10.184z"/>
						<path clip-path="url(#SVGID_25_)" fill="#263238" d="M10.184,58.223v-2.218h1.475c-2.431,0-4.405,1.975-4.405,4.405v-2.188
							H10.184z"/>
					</g>
				</g>
			</g>
		</g>
		<g>
			<polygon fill="#49809B" points="4.538,40.148 0,40.148 11.728,60.423 13.995,56.503 13.997,56.499 			"/>
		</g>
		<g opacity="0.7" enable-background="new    ">
			<path fill="#49809B" d="M15.465,53.958c0.425-0.731,0.425-1.635,0-2.367L8.849,40.148H4.538l9.458,16.351L15.465,53.958z"/>
		</g>
		<g opacity="0.2" enable-background="new    ">
			<g>
				<g>
					<defs>
						<rect id="SVGID_26_" y="40.148" width="13.997" height="20.275"/>
					</defs>
					<clipPath id="SVGID_27_">
						<use xlink:href="#SVGID_26_"  overflow="visible"/>
					</clipPath>
					<g clip-path="url(#SVGID_27_)">
						<polygon fill="#1A237E" points="13.997,56.499 13.938,56.401 11.728,60.224 0.115,40.148 0,40.148 11.728,60.423 
							13.995,56.503 						"/>
					</g>
				</g>
			</g>
		</g>
		<g opacity="0.2" enable-background="new    ">
			<g>
				<g>
					<defs>
						<rect id="SVGID_28_" y="40.148" width="15.779" height="12.725"/>
					</defs>
					<clipPath id="SVGID_29_">
						<use xlink:href="#SVGID_28_"  overflow="visible"/>
					</clipPath>
					<g clip-path="url(#SVGID_29_)">
						<path fill="#FFFFFF" d="M8.849,40.344l6.617,11.443c0.196,0.338,0.296,0.71,0.312,1.085c0.018-0.441-0.083-0.889-0.312-1.282
							L8.849,40.148H0l0.115,0.196H8.849z"/>
					</g>
				</g>
			</g>
		</g>
		<g opacity="0.2" enable-background="new    ">
			<g>
				<g>
					<defs>
						<rect id="SVGID_30_" x="13.938" y="52.675" width="1.841" height="3.824"/>
					</defs>
					<clipPath id="SVGID_31_">
						<use xlink:href="#SVGID_30_"  overflow="visible"/>
					</clipPath>
					<g clip-path="url(#SVGID_31_)">
						<path fill="#3E2723" d="M13.997,56.499l1.469-2.541c0.229-0.395,0.331-0.84,0.312-1.283c-0.016,0.375-0.116,0.75-0.312,1.086
							l-1.527,2.641L13.997,56.499z"/>
					</g>
				</g>
			</g>
		</g>
		<g>
			<defs>
				<path id="SVGID_32_" d="M0,40.148l7.304,12.626L0,65.401h8.849l6.617-11.444c0.425-0.731,0.425-1.635,0-2.366L8.849,40.148H0z"
					/>
			</defs>
			<clipPath id="SVGID_33_">
				<use xlink:href="#SVGID_32_"  overflow="visible"/>
			</clipPath>
			<defs>
				<filter id="Adobe_OpacityMaskFilter_2_" filterUnits="userSpaceOnUse" x="-2.904" y="37.731" width="21.442" height="29.217">
					<feColorMatrix  type="matrix" values="1 0 0 0 0  0 1 0 0 0  0 0 1 0 0  0 0 0 1 0"/>
				</filter>
			</defs>
			<mask maskUnits="userSpaceOnUse" x="-2.904" y="37.731" width="21.442" height="29.217" id="SVGID_4_">
				<g filter="url(#Adobe_OpacityMaskFilter_2_)">
					<g>
						<defs>
							<path id="SVGID_34_" d="M0,40.148l7.304,12.626L0,65.401h8.849l6.617-11.444c0.425-0.731,0.425-1.635,0-2.366L8.849,40.148H0
								z"/>
						</defs>
						<clipPath id="SVGID_35_" clip-path="url(#SVGID_33_)">
							<use xlink:href="#SVGID_34_"  overflow="visible"/>
						</clipPath>
						
							<radialGradient id="SVGID_36_" cx="-1674.8911" cy="538.6785" r="0.197" gradientTransform="matrix(134.3503 0 0 -134.3503 225021.9062 72412.0469)" gradientUnits="userSpaceOnUse">
							<stop  offset="0" style="stop-color:#1A1A1A"/>
							<stop  offset="1" style="stop-color:#000000"/>
						</radialGradient>
						<rect y="40.148" clip-path="url(#SVGID_35_)" fill="url(#SVGID_36_)" width="15.89" height="25.253"/>
					</g>
				</g>
			</mask>
			<g clip-path="url(#SVGID_33_)" mask="url(#SVGID_4_)">
				<g>
					<defs>
						<rect id="SVGID_37_" y="40.148" width="15.89" height="25.253"/>
					</defs>
					<clipPath id="SVGID_38_">
						<use xlink:href="#SVGID_37_"  overflow="visible"/>
					</clipPath>
					<rect y="40.148" clip-path="url(#SVGID_38_)" fill="#FFFFFF" width="15.889" height="25.255"/>
					<path clip-path="url(#SVGID_38_)" fill="#FFFFFF" d="M16.501,40.407v-0.871H-0.612v26.479h0.382v0.933
						c7.33,0,13.965-2.972,18.768-7.774h-2.037V40.407z"/>
					<path clip-path="url(#SVGID_38_)" fill="#FFFFFF" d="M13.041,40.407c0-0.917-0.093-1.812-0.27-2.676v1.805H-0.612v13.871
						h-2.292c0.863,0.177,1.758,0.271,2.674,0.271C7.1,53.677,13.041,47.736,13.041,40.407z"/>
				</g>
			</g>
		</g>
		<g>
			<defs>
				<rect id="SVGID_39_" x="25.147" y="41.039" width="60.769" height="21.394"/>
			</defs>
			<clipPath id="SVGID_40_">
				<use xlink:href="#SVGID_39_"  overflow="visible"/>
			</clipPath>
			<g clip-path="url(#SVGID_40_)">
				<path fill="#49809B" d="M85.764,50.467h-9.405v2.912h6.631c-0.22,1.485-0.734,2.644-1.505,3.418
					c-0.982,0.982-2.518,2.062-5.21,2.062c-4.153,0-7.4-3.349-7.4-7.501s3.247-7.501,7.4-7.501c2.238,0,3.876,0.882,5.084,2.015
					l1.989-1.988c-1.688-1.612-3.927-2.846-7.073-2.846c-5.688,0-10.471,4.63-10.471,10.32c0,5.688,4.783,10.32,10.471,10.32
					c3.07,0,5.385-1.006,7.199-2.895c1.862-1.862,2.443-4.479,2.443-6.595C85.916,51.534,85.865,50.969,85.764,50.467"/>
			</g>
		</g>
	</g>
</g>
</svg>
