<?xml version="1.0" encoding="utf-8"?>
<!-- Generator: Adobe Illustrator 16.0.0, SVG Export Plug-In . SVG Version: 6.00 Build 0)  -->
<!DOCTYPE svg PUBLIC "-//W3C//DTD SVG 1.1//EN" "http://www.w3.org/Graphics/SVG/1.1/DTD/svg11.dtd">
<svg version="1.1" id="Capa_1" xmlns="http://www.w3.org/2000/svg" xmlns:xlink="http://www.w3.org/1999/xlink" x="0px" y="0px"
	 width="326.708px" height="41.225px" viewBox="-24.418 -87.388 326.708 41.225"
	 enable-background="new -24.418 -87.388 326.708 41.225" xml:space="preserve">
<g id="plantilla" display="none">
</g>
<g>
	<g>
		<polygon fill="#5DCC87" points="-5.368,-54.449 -8.791,-60.372 -17.01,-46.163 -9.973,-46.163 -5.274,-54.288 		"/>
		<polygon opacity="0.7" fill="#5DCC87" points="-12.495,-66.775 -8.791,-60.372 -17.01,-46.163 -24.418,-46.163 		"/>
		<g opacity="0.2" enable-background="new    ">
			<g>
				<defs>
					<rect id="SVGID_1_" x="-17.01" y="-54.449" width="11.735" height="8.286"/>
				</defs>
				<clipPath id="SVGID_2_">
					<use xlink:href="#SVGID_1_"  overflow="visible"/>
				</clipPath>
				<polygon clip-path="url(#SVGID_2_)" fill="#414042" points="-9.973,-46.485 -16.823,-46.485 -17.01,-46.163 -9.973,-46.163 
					-5.274,-54.288 -5.368,-54.449 				"/>
			</g>
		</g>
		<g opacity="0.2" enable-background="new    ">
			<g>
				<defs>
					<rect id="SVGID_3_" x="-24.418" y="-46.485" width="7.595" height="0.322"/>
				</defs>
				<clipPath id="SVGID_4_">
					<use xlink:href="#SVGID_3_"  overflow="visible"/>
				</clipPath>
				<polygon clip-path="url(#SVGID_4_)" fill="#263238" points="-24.231,-46.485 -24.418,-46.163 -17.01,-46.163 -16.823,-46.485 
									"/>
			</g>
		</g>
		<g opacity="0.2" enable-background="new    ">
			<g>
				<defs>
					<rect id="SVGID_5_" x="-24.418" y="-66.775" width="12.017" height="20.612"/>
				</defs>
				<clipPath id="SVGID_6_">
					<use xlink:href="#SVGID_5_"  overflow="visible"/>
				</clipPath>
				<polygon clip-path="url(#SVGID_6_)" fill="#FFFFFF" points="-24.418,-46.163 -24.231,-46.163 -12.401,-66.614 -12.495,-66.775 
									"/>
			</g>
		</g>
		<g>
			<defs>
				<polygon id="SVGID_7_" points="-5.274,-54.288 -5.274,-54.288 -8.791,-60.372 -9.654,-58.882 				"/>
			</defs>
			<clipPath id="SVGID_8_">
				<use xlink:href="#SVGID_7_"  overflow="visible"/>
			</clipPath>
			<defs>
				<filter id="Adobe_OpacityMaskFilter" filterUnits="userSpaceOnUse" x="-9.654" y="-60.372" width="4.38" height="6.084">
					<feColorMatrix  type="matrix" values="1 0 0 0 0  0 1 0 0 0  0 0 1 0 0  0 0 0 1 0"/>
				</filter>
			</defs>
			<mask maskUnits="userSpaceOnUse" x="-9.654" y="-60.372" width="4.38" height="6.084" id="SVGID_9_">
				<g filter="url(#Adobe_OpacityMaskFilter)">
					
						<radialGradient id="SVGID_10_" cx="-241.2495" cy="240.7295" r="0.2538" gradientTransform="matrix(44.2635 0 0 44.2635 10673.2227 -10709.8828)" gradientUnits="userSpaceOnUse">
						<stop  offset="0" style="stop-color:#333333"/>
						<stop  offset="1" style="stop-color:#050505"/>
					</radialGradient>
					<rect x="-9.654" y="-60.372" clip-path="url(#SVGID_8_)" fill="url(#SVGID_10_)" width="4.38" height="6.084"/>
				</g>
			</mask>
			<rect x="-9.654" y="-60.372" clip-path="url(#SVGID_8_)" mask="url(#SVGID_9_)" fill="#58595B" width="4.38" height="6.084"/>
		</g>
		<g>
			<defs>
				<polygon id="SVGID_11_" points="-9.654,-58.882 -8.791,-60.372 -12.495,-66.775 -14.263,-63.716 				"/>
			</defs>
			<clipPath id="SVGID_12_">
				<use xlink:href="#SVGID_11_"  overflow="visible"/>
			</clipPath>
			<defs>
				<filter id="Adobe_OpacityMaskFilter_1_" filterUnits="userSpaceOnUse" x="-14.263" y="-66.775" width="5.472" height="7.894">
					<feColorMatrix  type="matrix" values="1 0 0 0 0  0 1 0 0 0  0 0 1 0 0  0 0 0 1 0"/>
				</filter>
			</defs>
			<mask maskUnits="userSpaceOnUse" x="-14.263" y="-66.775" width="5.472" height="7.894" id="SVGID_13_">
				<g filter="url(#Adobe_OpacityMaskFilter_1_)">
					
						<radialGradient id="SVGID_14_" cx="-241.2593" cy="240.7441" r="0.3231" gradientTransform="matrix(44.6228 0 0 44.6228 10760.2891 -10797.0088)" gradientUnits="userSpaceOnUse">
						<stop  offset="0" style="stop-color:#333333"/>
						<stop  offset="1" style="stop-color:#050505"/>
					</radialGradient>
					<rect x="-14.264" y="-66.775" clip-path="url(#SVGID_12_)" fill="url(#SVGID_14_)" width="5.473" height="7.894"/>
				</g>
			</mask>
			
				<radialGradient id="SVGID_15_" cx="-241.2583" cy="240.7441" r="0.3211" gradientTransform="matrix(44.6228 0 0 44.6228 10760.2578 -10797.04)" gradientUnits="userSpaceOnUse">
				<stop  offset="0" style="stop-color:#263238"/>
				<stop  offset="1" style="stop-color:#263238"/>
			</radialGradient>
			
				<rect x="-14.263" y="-66.775" clip-path="url(#SVGID_12_)" mask="url(#SVGID_13_)" fill="url(#SVGID_15_)" width="5.472" height="7.894"/>
		</g>
		<polygon fill="#5DCC87" points="-17.01,-87.388 -24.418,-87.388 -5.274,-54.288 -1.573,-60.688 -1.57,-60.695 		"/>
		<path opacity="0.7" fill="#5DCC87" d="M0.829-64.844c0.692-1.194,0.692-2.669,0-3.864l-10.802-18.68h-7.037L-1.57-60.695
			L0.829-64.844z"/>
		<g opacity="0.2" enable-background="new    ">
			<g>
				<defs>
					<rect id="SVGID_16_" x="-24.418" y="-87.388" width="22.848" height="33.1"/>
				</defs>
				<clipPath id="SVGID_17_">
					<use xlink:href="#SVGID_16_"  overflow="visible"/>
				</clipPath>
				<polygon clip-path="url(#SVGID_17_)" fill="#1A237E" points="-1.57,-60.695 -1.664,-60.854 -5.274,-54.611 -24.231,-87.388 
					-24.418,-87.388 -5.274,-54.288 -1.573,-60.688 				"/>
			</g>
		</g>
		<g opacity="0.2" enable-background="new    ">
			<g>
				<defs>
					<rect id="SVGID_18_" x="-24.418" y="-87.388" width="25.76" height="20.773"/>
				</defs>
				<clipPath id="SVGID_19_">
					<use xlink:href="#SVGID_18_"  overflow="visible"/>
				</clipPath>
				<path clip-path="url(#SVGID_19_)" fill="#FFFFFF" d="M-9.973-87.066L0.829-68.386c0.319,0.551,0.483,1.159,0.509,1.771
					c0.029-0.722-0.135-1.45-0.509-2.094l-10.802-18.68h-14.445l0.187,0.321H-9.973z"/>
			</g>
		</g>
		<g opacity="0.2" enable-background="new    ">
			<g>
				<defs>
					<rect id="SVGID_20_" x="-1.664" y="-66.938" width="3.006" height="6.242"/>
				</defs>
				<clipPath id="SVGID_21_">
					<use xlink:href="#SVGID_20_"  overflow="visible"/>
				</clipPath>
				<path clip-path="url(#SVGID_21_)" fill="#3E2723" d="M-1.57-60.695l2.399-4.148c0.374-0.644,0.538-1.372,0.509-2.094
					c-0.025,0.612-0.189,1.223-0.509,1.772l-2.493,4.312L-1.57-60.695z"/>
			</g>
		</g>
	</g>
	<g>
		<g>
			<path fill="#5DCC87" d="M160.845-60.271c-0.396,3.384-1.645,5.995-3.746,7.833c-2.103,1.839-4.896,2.758-8.383,2.758
				c-3.779,0-6.808-1.354-9.086-4.064c-2.277-2.71-3.416-6.336-3.416-10.877v-3.076c0-2.974,0.53-5.588,1.593-7.844
				c1.062-2.256,2.566-3.988,4.515-5.197c1.948-1.208,4.204-1.812,6.768-1.812c3.398,0,6.123,0.948,8.174,2.846
				c2.051,1.896,3.245,4.522,3.582,7.877h-4.24c-0.367-2.557-1.161-4.408-2.385-5.554c-1.223-1.146-2.934-1.72-5.131-1.72
				c-2.695,0-4.808,0.997-6.339,2.991c-1.53,1.994-2.296,4.831-2.296,8.511v3.101c0,3.475,0.725,6.238,2.176,8.291
				c1.449,2.053,3.479,3.079,6.086,3.079c2.344,0,4.142-0.531,5.395-1.594c1.252-1.062,2.083-2.911,2.494-5.548H160.845z"/>
			<path fill="#5DCC87" d="M164.888-62.228c0-2.328,0.457-4.423,1.373-6.283c0.915-1.86,2.189-3.297,3.823-4.307
				c1.633-1.012,3.497-1.517,5.592-1.517c3.237,0,5.855,1.12,7.855,3.362c1.999,2.24,2.999,5.222,2.999,8.942v0.286
				c0,2.314-0.443,4.391-1.329,6.229c-0.887,1.839-2.153,3.271-3.802,4.296c-1.647,1.025-3.541,1.538-5.68,1.538
				c-3.223,0-5.834-1.121-7.833-3.361c-2-2.242-2.999-5.208-2.999-8.899V-62.228z M168.974-61.743c0,2.637,0.612,4.753,1.835,6.35
				c1.224,1.597,2.86,2.395,4.911,2.395c2.065,0,3.706-0.809,4.922-2.428c1.216-1.618,1.824-3.885,1.824-6.801
				c0-2.606-0.619-4.72-1.857-6.339c-1.237-1.618-2.882-2.428-4.933-2.428c-2.007,0-3.626,0.799-4.856,2.396
				S168.974-64.717,168.974-61.743z M177.521-83.826h4.922l-5.889,6.46l-3.274-0.011L177.521-83.826z"/>
			<path fill="#5DCC87" d="M203.12-70.247c-0.615-0.103-1.282-0.154-2-0.154c-2.666,0-4.476,1.136-5.428,3.406v16.875h-4.064
				v-23.774h3.955l0.066,2.747c1.332-2.124,3.222-3.187,5.668-3.187c0.791,0,1.392,0.103,1.803,0.308V-70.247z"/>
			<path fill="#5DCC87" d="M205.448-62.205c0-3.647,0.863-6.581,2.592-8.8c1.729-2.22,3.992-3.329,6.79-3.329
				c2.783,0,4.987,0.952,6.614,2.856V-83.87h4.064v33.75h-3.735l-0.198-2.549c-1.625,1.992-3.889,2.988-6.789,2.988
				c-2.754,0-4.999-1.128-6.734-3.384c-1.736-2.256-2.604-5.2-2.604-8.833V-62.205z M209.513-61.743c0,2.695,0.557,4.805,1.67,6.328
				s2.651,2.285,4.614,2.285c2.578,0,4.46-1.157,5.647-3.473v-10.92c-1.217-2.241-3.084-3.361-5.604-3.361
				c-1.992,0-3.545,0.769-4.658,2.307S209.513-64.761,209.513-61.743z"/>
			<path fill="#5DCC87" d="M230.739-62.228c0-2.328,0.457-4.423,1.373-6.283c0.915-1.86,2.189-3.297,3.823-4.307
				c1.633-1.012,3.497-1.517,5.592-1.517c3.237,0,5.855,1.12,7.855,3.362c1.999,2.24,2.999,5.222,2.999,8.942v0.286
				c0,2.314-0.443,4.391-1.329,6.229c-0.887,1.839-2.153,3.271-3.802,4.296c-1.647,1.025-3.541,1.538-5.68,1.538
				c-3.223,0-5.834-1.121-7.833-3.361c-2-2.242-2.999-5.208-2.999-8.899V-62.228z M234.825-61.743c0,2.637,0.612,4.753,1.835,6.35
				c1.224,1.597,2.86,2.395,4.911,2.395c2.065,0,3.706-0.809,4.922-2.428c1.216-1.618,1.824-3.885,1.824-6.801
				c0-2.606-0.619-4.72-1.857-6.339c-1.237-1.618-2.882-2.428-4.933-2.428c-2.007,0-3.626,0.799-4.856,2.396
				S234.825-64.717,234.825-61.743z"/>
			<path fill="#5DCC87" d="M277.606-61.743c0,3.633-0.835,6.551-2.505,8.756c-1.67,2.204-3.911,3.307-6.724,3.307
				c-3.003,0-5.325-1.062-6.965-3.186l-0.198,2.746h-3.735v-33.75h4.064v12.59c1.641-2.035,3.904-3.054,6.79-3.054
				s5.152,1.092,6.801,3.274c1.647,2.183,2.472,5.171,2.472,8.965V-61.743z M273.542-62.205c0-2.769-0.535-4.907-1.604-6.416
				s-2.607-2.263-4.614-2.263c-2.681,0-4.607,1.245-5.779,3.734v10.283c1.245,2.491,3.187,3.736,5.823,3.736
				c1.948,0,3.464-0.755,4.548-2.264S273.542-59.173,273.542-62.205z"/>
			<path fill="#5DCC87" d="M297.403-50.12c-0.234-0.469-0.425-1.304-0.571-2.505c-1.89,1.963-4.146,2.944-6.768,2.944
				c-2.344,0-4.267-0.663-5.768-1.988c-1.502-1.326-2.253-3.007-2.253-5.043c0-2.476,0.941-4.398,2.824-5.768
				c1.882-1.37,4.529-2.055,7.943-2.055h3.955v-1.867c0-1.421-0.426-2.553-1.275-3.396c-0.85-0.842-2.102-1.263-3.757-1.263
				c-1.45,0-2.666,0.366-3.647,1.098c-0.981,0.733-1.473,1.619-1.473,2.659h-4.086c0-1.187,0.421-2.333,1.263-3.438
				c0.843-1.106,1.985-1.981,3.428-2.626c1.443-0.645,3.028-0.967,4.757-0.967c2.739,0,4.886,0.685,6.438,2.055
				c1.553,1.369,2.358,3.256,2.417,5.657v10.943c0,2.183,0.278,3.918,0.835,5.207v0.352H297.403z M290.657-53.218
				c1.275,0,2.483-0.33,3.626-0.989s1.97-1.517,2.483-2.571v-4.877h-3.187c-4.98,0-7.471,1.457-7.471,4.372
				c0,1.274,0.425,2.271,1.274,2.988S289.324-53.218,290.657-53.218z"/>
		</g>
		<g>
			<path fill="#5DCC87" d="M53.671-82.785h9.854c10.036,0,16.336,6.66,16.336,16.007c0,9.389-6.303,16.007-16.336,16.007h-9.854
				V-82.785z M63.696-55.622c6.985,0,11.315-3.877,11.315-11.156c0-7.237-4.33-11.157-11.315-11.157h-5.175v22.313H63.696z"/>
			<path fill="#5DCC87" d="M49.622-68.23H34.27v4.753h10.824c-0.358,2.426-1.198,4.316-2.458,5.579
				c-1.604,1.604-4.109,3.369-8.505,3.369c-6.78,0-12.082-5.467-12.082-12.246s5.302-12.245,12.082-12.245
				c3.655,0,6.328,1.439,8.299,3.289l3.247-3.247c-2.754-2.632-6.409-4.645-11.546-4.645c-9.285,0-17.093,7.559-17.093,16.848
				c0,9.285,7.808,16.848,17.093,16.848c5.011,0,8.792-1.643,11.752-4.725c3.04-3.041,3.987-7.314,3.987-10.767
				C49.87-66.488,49.786-67.409,49.622-68.23"/>
			<path fill="#5DCC87" d="M115.588-68.23h-15.353v4.753h10.825c-0.358,2.426-1.198,4.316-2.458,5.579
				c-1.604,1.604-4.109,3.369-8.506,3.369c-6.779,0-12.081-5.467-12.081-12.246s5.302-12.245,12.081-12.245
				c3.655,0,6.329,1.439,8.3,3.289l3.246-3.247c-2.754-2.632-6.409-4.645-11.546-4.645c-9.285,0-17.092,7.559-17.092,16.848
				c0,9.285,7.807,16.848,17.092,16.848c5.013,0,8.792-1.643,11.753-4.725c3.04-3.041,3.987-7.314,3.987-10.767
				C115.837-66.488,115.753-67.409,115.588-68.23"/>
		</g>
	</g>
</g>
</svg>
