<?xml version="1.0" encoding="utf-8"?>
<!-- Generator: Adobe Illustrator 16.0.0, SVG Export Plug-In . SVG Version: 6.00 Build 0)  -->
<!DOCTYPE svg PUBLIC "-//W3C//DTD SVG 1.1//EN" "http://www.w3.org/Graphics/SVG/1.1/DTD/svg11.dtd">
<svg version="1.1" id="Layer_1" xmlns="http://www.w3.org/2000/svg" xmlns:xlink="http://www.w3.org/1999/xlink" x="0px" y="0px"
	 width="453.128px" height="415.643px" viewBox="-862.98 -192.591 453.128 415.643"
	 enable-background="new -862.98 -192.591 453.128 415.643" xml:space="preserve">
<g>
	<g>
		<g>
			<path fill="#68BA82" d="M-804.705-75.033c-8.253,0-16.065-1.543-23.185-4.567s-13.356-7.213-18.521-12.442
				c-5.198-5.229-9.293-11.498-12.191-18.617s-4.378-14.805-4.378-22.837v-0.315c0-8.064,1.48-15.719,4.378-22.774
				c2.898-7.056,6.993-13.325,12.159-18.648c5.197-5.354,11.498-9.639,18.711-12.694c7.213-3.087,15.277-4.63,23.971-4.63
				c5.198,0,10.018,0.441,14.333,1.292c4.347,0.851,8.348,2.047,11.907,3.56c3.591,1.512,6.93,3.402,9.985,5.575
				c2.992,2.142,5.827,4.536,8.379,7.088l2.488,2.488l-19.719,22.711l-2.866-2.583c-3.875-3.497-7.875-6.269-11.845-8.221
				c-3.748-1.859-8.096-2.804-12.852-2.804c-3.906,0-7.528,0.756-10.836,2.236c-3.308,1.512-6.174,3.591-8.568,6.237
				c-2.394,2.677-4.315,5.827-5.67,9.387s-2.048,7.434-2.048,11.498v0.315c0,4.095,0.693,7.97,2.048,11.592
				c1.354,3.591,3.244,6.772,5.607,9.45c2.331,2.646,5.197,4.757,8.505,6.3c3.275,1.543,6.961,2.299,10.931,2.299
				c5.418,0,10.017-0.977,13.639-2.898c3.906-2.047,7.844-4.945,11.75-8.537l2.678-2.488l20.002,20.191l-2.457,2.646
				c-2.835,3.056-5.858,5.859-8.914,8.285c-3.15,2.488-6.646,4.662-10.363,6.458c-3.749,1.795-7.907,3.181-12.349,4.095
				C-794.342-75.505-799.319-75.033-804.705-75.033z M-803.792-185.031c-7.654,0-14.742,1.354-21.011,4.032
				c-6.3,2.677-11.749,6.363-16.254,10.994c-4.504,4.63-8.064,10.111-10.615,16.285c-2.52,6.143-3.812,12.852-3.812,19.908v0.315
				c0,7.056,1.292,13.797,3.812,20.002s6.111,11.624,10.584,16.16c4.505,4.536,9.923,8.19,16.097,10.804
				c6.174,2.615,13.01,3.969,20.254,3.969c4.883,0,9.324-0.41,13.23-1.197c3.843-0.788,7.402-1.984,10.615-3.497
				c3.213-1.543,6.237-3.402,8.946-5.544c1.89-1.512,3.748-3.15,5.575-4.914l-9.765-9.891c-3.497,2.961-7.056,5.386-10.584,7.276
				c-4.726,2.52-10.521,3.78-17.199,3.78c-5.103,0-9.859-1.008-14.144-3.024c-4.252-1.984-7.938-4.725-10.962-8.127
				c-2.961-3.371-5.323-7.339-7.024-11.812c-1.67-4.441-2.52-9.261-2.52-14.238v-0.315c0-5.009,0.85-9.765,2.52-14.175
				c1.67-4.41,4.063-8.379,7.119-11.75c3.056-3.402,6.772-6.111,11.057-8.064c4.283-1.953,8.978-2.929,13.954-2.929
				c5.922,0,11.372,1.197,16.191,3.591c3.591,1.764,7.15,4.095,10.615,6.898l10.08-11.592c-1.544-1.354-3.182-2.678-4.883-3.875
				c-2.583-1.859-5.48-3.465-8.536-4.757c-3.087-1.292-6.584-2.362-10.427-3.118C-794.751-184.653-799.099-185.031-803.792-185.031z
				"/>
		</g>
		<g>
			<path fill="#68BA82" d="M-690.738-75.033c-8.663,0-16.79-1.543-24.098-4.63c-7.308-3.056-13.702-7.245-19.026-12.474
				c-5.354-5.229-9.575-11.498-12.537-18.553c-2.961-7.056-4.473-14.742-4.473-22.806v-0.315c0-8.064,1.544-15.75,4.567-22.837
				c3.024-7.056,7.245-13.325,12.568-18.648c5.355-5.355,11.781-9.607,19.152-12.663c7.371-3.056,15.498-4.631,24.16-4.631
				c8.663,0,16.79,1.544,24.098,4.631c7.276,3.055,13.703,7.245,19.026,12.474c5.354,5.261,9.576,11.498,12.537,18.554
				c2.961,7.087,4.473,14.742,4.473,22.806v0.315c0,8.064-1.543,15.75-4.567,22.837c-3.024,7.056-7.245,13.325-12.568,18.648
				c-5.355,5.355-11.781,9.607-19.152,12.663S-682.076-75.033-690.738-75.033z M-690.455-185.031
				c-7.654,0-14.836,1.354-21.263,4.032c-6.457,2.677-12.064,6.395-16.694,11.025c-4.662,4.662-8.348,10.143-10.962,16.286
				c-2.615,6.143-3.938,12.82-3.938,19.876v0.315c0,7.056,1.291,13.766,3.874,19.876c2.583,6.143,6.237,11.561,10.867,16.097
				c4.662,4.567,10.27,8.221,16.664,10.93c6.395,2.678,13.514,4.032,21.168,4.032s14.805-1.354,21.263-4.032
				c6.457-2.677,12.064-6.395,16.694-11.025c4.662-4.662,8.348-10.143,10.962-16.286c2.615-6.142,3.938-12.82,3.938-19.876v-0.315
				c0-7.056-1.291-13.734-3.874-19.876s-6.237-11.561-10.867-16.097c-4.662-4.567-10.27-8.221-16.664-10.899
				C-675.649-183.677-682.769-185.031-690.455-185.031z M-690.455-96.611c-5.292,0-10.175-1.008-14.553-2.992
				c-4.315-1.953-8.127-4.662-11.34-8.064c-3.213-3.371-5.733-7.371-7.466-11.875c-1.732-4.473-2.614-9.261-2.614-14.27v-0.315
				c0-5.009,0.882-9.797,2.614-14.207c1.732-4.41,4.189-8.379,7.276-11.718c3.118-3.402,6.931-6.111,11.277-8.032
				c4.378-1.921,9.261-2.898,14.521-2.898c5.166,0,10.048,1.008,14.458,2.992c4.379,1.984,8.253,4.694,11.435,8.064
				c3.213,3.371,5.733,7.371,7.466,11.875c1.732,4.473,2.614,9.292,2.614,14.27v0.315c0,5.009-0.882,9.797-2.614,14.207
				c-1.732,4.41-4.189,8.348-7.276,11.718c-3.15,3.434-6.962,6.143-11.372,8.064C-680.438-97.587-685.289-96.611-690.455-96.611z
				 M-690.738-163.454c-4.221,0-8.064,0.756-11.466,2.268c-3.402,1.512-6.363,3.591-8.758,6.237
				c-2.456,2.678-4.409,5.828-5.796,9.387c-1.386,3.528-2.079,7.402-2.079,11.466v0.315c0,4.063,0.693,7.97,2.111,11.561
				c1.386,3.56,3.37,6.741,5.891,9.387c2.551,2.677,5.575,4.819,9.009,6.395c3.37,1.543,7.245,2.331,11.435,2.331
				c4.126,0,7.969-0.756,11.402-2.268c3.434-1.512,6.427-3.591,8.82-6.237c2.457-2.677,4.41-5.827,5.796-9.387
				c1.386-3.528,2.079-7.402,2.079-11.466v-0.315c0-4.063-0.693-7.938-2.11-11.561c-1.386-3.56-3.37-6.741-5.891-9.387
				c-2.521-2.678-5.575-4.819-9.072-6.363C-682.832-162.698-686.644-163.454-690.738-163.454z"/>
		</g>
		<g>
			<path fill="#68BA82" d="M-571.794-76.86h-45.234v-113.904h45.234c8.725,0,16.884,1.449,24.223,4.284
				c7.371,2.866,13.829,6.867,19.152,11.938c5.355,5.103,9.576,11.183,12.506,18.049c2.93,6.867,4.41,14.396,4.41,22.365v0.315
				c0,7.969-1.48,15.529-4.41,22.428c-2.93,6.93-7.119,13.041-12.506,18.144c-5.323,5.072-11.781,9.104-19.152,12.001
				C-554.879-78.341-563.037-76.86-571.794-76.86z M-609.5-84.42h37.706c7.78,0,15.025-1.292,21.482-3.843
				c6.458-2.551,12.096-6.08,16.727-10.458c4.599-4.378,8.222-9.639,10.741-15.592c2.521-5.985,3.812-12.537,3.812-19.499v-0.315
				c0-6.962-1.291-13.482-3.812-19.404c-2.52-5.922-6.143-11.151-10.741-15.529c-4.631-4.41-10.237-7.875-16.695-10.395
				c-6.488-2.489-13.702-3.78-21.514-3.78H-609.5V-84.42L-609.5-84.42z M-571.794-97.997h-21.861v-71.631h21.861
				c5.229,0,10.079,0.882,14.458,2.614c4.41,1.764,8.253,4.284,11.403,7.466c3.118,3.181,5.606,7.024,7.339,11.434
				c1.732,4.378,2.615,9.198,2.615,14.301v0.315c0,5.229-0.883,10.048-2.646,14.333s-4.221,8.095-7.34,11.246
				c-3.149,3.213-6.992,5.701-11.435,7.402C-561.746-98.847-566.597-97.997-571.794-97.997z M-586.096-105.525h14.302
				c4.283,0,8.221-0.693,11.718-2.016c3.434-1.323,6.362-3.213,8.757-5.67c2.426-2.457,4.347-5.418,5.732-8.82
				c1.387-3.371,2.079-7.245,2.079-11.498v-0.315c0-4.158-0.692-8.032-2.079-11.529c-1.386-3.465-3.307-6.458-5.732-8.915
				c-2.395-2.457-5.355-4.378-8.82-5.733c-3.496-1.386-7.402-2.079-11.687-2.079h-14.301v56.574H-586.096z"/>
		</g>
		<g>
			<path fill="#68BA82" d="M-409.853-76.86h-88.357v-113.904h87.602v28.35h-56.984v14.018h50.148v28.35h-50.148v14.805h57.74V-76.86
				z M-490.682-84.42h73.269v-13.262h-57.739v-29.862h50.147v-13.293h-50.147v-29.106h56.983v-13.261h-72.513V-84.42z"/>
		</g>
	</g>
	<g>
		<g>
			<g>
				<path fill="#68BA82" d="M-709.513,2.331c0-1.953,1.544-3.497,3.497-3.497s3.496,1.543,3.496,3.497v25.263
					c0,1.952-1.543,3.496-3.496,3.496s-3.497-1.544-3.497-3.496V2.331z"/>
			</g>
			<g>
				<path fill="#68BA82" d="M-694.613,2.425c0-1.953,1.544-3.497,3.497-3.497h0.725c1.669,0,2.677,0.819,3.622,2.048l13.45,17.64
					V2.268c0-1.89,1.544-3.434,3.434-3.434c1.891,0,3.434,1.543,3.434,3.434v25.2c0,1.952-1.543,3.496-3.496,3.496h-0.221
					c-1.67,0-2.678-0.819-3.622-2.048l-13.924-18.27v16.979c0,1.89-1.543,3.434-3.433,3.434c-1.891,0-3.434-1.544-3.434-3.434v-25.2
					H-694.613z"/>
			</g>
			<g>
				<path fill="#68BA82" d="M-637.913,5.544h-6.709c-1.765,0-3.213-1.449-3.213-3.213c0-1.764,1.448-3.213,3.213-3.213h20.349
					c1.764,0,3.213,1.449,3.213,3.213c0,1.764-1.449,3.213-3.213,3.213h-6.71v22.05c0,1.952-1.543,3.496-3.496,3.496
					s-3.496-1.544-3.496-3.496V5.544H-637.913z"/>
			</g>
			<g>
				<path fill="#68BA82" d="M-615.957,2.331c0-1.953,1.543-3.497,3.496-3.497s3.496,1.543,3.496,3.497v9.324h12.853V2.331
					c0-1.953,1.543-3.497,3.496-3.497s3.497,1.543,3.497,3.497v25.263c0,1.952-1.544,3.496-3.497,3.496s-3.496-1.544-3.496-3.496
					v-9.514h-12.853v9.514c0,1.952-1.543,3.496-3.496,3.496s-3.496-1.544-3.496-3.496V2.331z"/>
			</g>
			<g>
				<path fill="#68BA82" d="M-581.591,27.31V2.614c0-1.953,1.543-3.497,3.496-3.497h17.546c1.732,0,3.118,1.418,3.118,3.119
					c0,1.732-1.417,3.087-3.118,3.087h-14.112v6.426h12.096c1.733,0,3.119,1.417,3.119,3.118s-1.418,3.087-3.119,3.087h-12.096
					v6.646h14.333c1.732,0,3.118,1.418,3.118,3.119c0,1.732-1.418,3.087-3.118,3.087h-17.798
					C-580.048,30.807-581.591,29.263-581.591,27.31z"/>
			</g>
		</g>
		<g>
			<rect x="-859.579" y="-43.344" fill="#68BA82" width="316.795" height="4.536"/>
		</g>
		<g>
			<rect x="-730.082" y="66.78" fill="#68BA82" width="316.796" height="4.536"/>
		</g>
	</g>
	<g>
		<g>
			<path fill="#68BA82" d="M-520.009,106.06h25.704v51.094l47.439-51.094h31.059l-47.597,49.581l49.771,67.315h-30.901
				l-36.226-49.77l-13.513,14.018v35.752h-25.704"/>
		</g>
		<g>
			<path fill="#68BA82" d="M-756.038,141.214c-2.992-7.056-7.276-13.229-12.789-18.459c-5.513-5.229-12.096-9.324-19.719-12.285
				s-16.002-4.41-25.137-4.41h-45.549v23.216h25.704h19.877c5.229,0,10.017,0.851,14.364,2.583
				c4.347,1.732,8.032,4.158,11.119,7.276c3.056,3.118,5.449,6.836,7.182,11.183c1.733,4.347,2.583,9.072,2.583,14.206v0.347
				c0,5.229-0.85,9.954-2.583,14.207c-1.732,4.221-4.126,7.906-7.182,11.024c-3.056,3.119-6.772,5.513-11.119,7.183
				c-4.348,1.669-9.136,2.52-14.364,2.52h-19.877l-25.704-0.756v23.972h45.581c9.135,0,17.514-1.512,25.137-4.505
				c7.623-2.992,14.207-7.119,19.719-12.348c5.513-5.229,9.766-11.403,12.789-18.522c2.993-7.119,4.505-14.805,4.505-23.058v-0.347
				C-751.533,155.925-753.014,148.27-756.038,141.214z"/>
		</g>
		<g>
			<polygon fill="#68BA82" points="-676.186,105.209 -699.905,105.209 -749.99,222.957 -723.782,222.957 -713.072,196.749 
				-703.905,174.006 -688.376,136.112 -672.847,174.006 -663.648,196.749 -652.97,222.957 -626.069,222.957 			"/>
		</g>
		<g>
			<path fill="#68BA82" d="M-565.242,181.188c7.465-2.772,13.481-7.15,18.112-13.104c4.631-5.953,6.93-13.671,6.93-23.12v-0.315
				c0-11.119-3.339-20.034-10.017-26.712c-7.906-7.906-19.278-11.844-34.083-11.844h-53.267v23.215h51.124
				c6.332,0,11.309,1.387,14.868,4.189c3.56,2.772,5.355,6.962,5.355,12.537v0.347c0,5.009-1.701,9.009-5.071,12.033
				c-3.402,2.992-8.285,4.504-14.616,4.504h-26.051v22.712h19.877h0.347l25.042,37.422h30.051L-565.242,181.188z"/>
		</g>
	</g>
	<g>
		<polyline fill="#68BA82" points="-520.009,222.957 -494.305,222.957 -494.305,106.06 -520.009,106.06 		"/>
	</g>
</g>
</svg>
