<?xml version="1.0" encoding="utf-8"?>
<!-- Generator: Adobe Illustrator 16.0.0, SVG Export Plug-In . SVG Version: 6.00 Build 0)  -->
<!DOCTYPE svg PUBLIC "-//W3C//DTD SVG 1.1//EN" "http://www.w3.org/Graphics/SVG/1.1/DTD/svg11.dtd">
<svg version="1.1" id="Capa_1" xmlns="http://www.w3.org/2000/svg" xmlns:xlink="http://www.w3.org/1999/xlink" x="0px" y="0px"
	 width="121.979px" height="36.92px" viewBox="89.509 -8.887 121.979 36.92" enable-background="new 89.509 -8.887 121.979 36.92"
	 xml:space="preserve">
<g id="plantilla" display="none">
</g>
<g>
	<path fill="#ADCCB9" d="M112.298-6.463v7.088h-6.95v26.691h-8.889V0.625h-6.95v-7.088H112.298z M124.489-4.616
		c0,0.801-0.212,1.528-0.635,2.182c-0.423,0.654-1.001,1.17-1.731,1.547c-0.731,0.377-1.551,0.565-2.459,0.565
		c-0.908,0-1.728-0.188-2.459-0.565c-0.731-0.377-1.308-0.893-1.731-1.547s-0.635-1.381-0.635-2.182c0-0.8,0.211-1.524,0.635-2.17
		c0.423-0.646,1-1.158,1.731-1.535c0.731-0.377,1.551-0.566,2.459-0.566c0.908,0,1.728,0.189,2.459,0.566
		c0.73,0.377,1.308,0.889,1.731,1.535C124.277-6.14,124.489-5.416,124.489-4.616z M123.981,1.711v25.606h-8.658V1.711H123.981z
		 M141.875,21.36c1.631,0,3.086-0.239,4.364-0.716v6.096c-0.77,0.369-1.728,0.676-2.875,0.923c-1.147,0.246-2.39,0.37-3.729,0.37
		c-4.202,0-7.438-1.078-9.709-3.233s-3.405-5.58-3.405-10.274c0-2.832,0.52-5.256,1.558-7.273c1.04-2.016,2.582-3.559,4.629-4.629
		s4.549-1.605,7.504-1.605c1.278,0,2.455,0.124,3.533,0.37c1.077,0.246,1.97,0.569,2.678,0.969l-3.556,5.842
		c-0.385-0.138-0.75-0.234-1.097-0.289c-0.346-0.054-0.766-0.081-1.258-0.081c-1.509,0-2.736,0.539-3.683,1.616
		c-0.947,1.078-1.42,2.756-1.42,5.034c0,2.34,0.531,4.072,1.593,5.195C138.065,20.797,139.689,21.36,141.875,21.36z M163.094,1.711
		v6.58h-5.565v10.482c0,1.062,0.234,1.801,0.704,2.216c0.47,0.416,1.25,0.624,2.344,0.624c0.508,0,1.116-0.062,1.824-0.185v5.68
		c-0.615,0.261-1.408,0.48-2.378,0.657c-0.97,0.178-1.947,0.267-2.933,0.267c-1.955,0-3.532-0.246-4.733-0.739
		c-1.201-0.492-2.082-1.27-2.644-2.333c-0.562-1.062-0.842-2.455-0.842-4.178V8.291h-2.794V8.106L152.981-3h4.548v4.71H163.094z
		 M187.938,27.317h-7.619c-0.309-0.985-0.524-1.725-0.646-2.218c-1.986,1.926-4.487,2.887-7.504,2.887
		c-1.586,0-2.979-0.289-4.18-0.866s-2.136-1.431-2.806-2.562c-0.67-1.131-1.004-2.505-1.004-4.121c0-1.77,0.373-3.244,1.12-4.422
		c0.746-1.177,1.873-2.112,3.382-2.804c1.509-0.693,3.456-1.202,5.842-1.525l4.641-0.623v-0.369c0-1.231-0.369-2.089-1.108-2.575
		c-0.738-0.485-1.893-0.727-3.463-0.727c-2.817,0-5.503,0.747-8.059,2.239V3.05c0.97-0.554,2.259-1.039,3.868-1.455
		c1.608-0.416,3.459-0.623,5.553-0.623c2.862,0,5.148,0.373,6.857,1.12s2.921,1.797,3.637,3.151c0.715,1.355,1.073,3.01,1.073,4.964
		V20.92c0,1.57,0.035,2.817,0.104,3.74C187.696,25.585,187.799,26.469,187.938,27.317z M175.285,21.751
		c1.478,0,2.771-0.369,3.879-1.107v-4.896l-3.51,0.855c-1.154,0.276-1.993,0.646-2.517,1.107c-0.523,0.462-0.785,1.07-0.785,1.825
		c0,0.723,0.267,1.273,0.797,1.651C173.68,21.563,174.392,21.751,175.285,21.751z M200.037-4.616c0,0.801-0.212,1.528-0.635,2.182
		c-0.424,0.654-1.001,1.17-1.732,1.547c-0.731,0.377-1.551,0.565-2.459,0.565s-1.728-0.188-2.459-0.565
		c-0.731-0.377-1.309-0.893-1.731-1.547c-0.424-0.654-0.635-1.381-0.635-2.182c0-0.8,0.211-1.524,0.635-2.17
		c0.423-0.646,1-1.158,1.731-1.535c0.731-0.377,1.551-0.566,2.459-0.566s1.728,0.189,2.459,0.566
		c0.731,0.377,1.309,0.889,1.732,1.535C199.825-6.14,200.037-5.416,200.037-4.616z M199.529,1.711v25.606h-8.659V1.711H199.529z
		 M211.489,27.317h-8.658v-33.78h8.658V27.317z"/>
</g>
</svg>
