<?xml version="1.0" standalone="no"?>
<!DOCTYPE svg PUBLIC "-//W3C//DTD SVG 20010904//EN"
 "http://www.w3.org/TR/2001/REC-SVG-20010904/DTD/svg10.dtd">
<svg version="1.0" xmlns="http://www.w3.org/2000/svg"
 width="201.000000pt" height="201.000000pt" viewBox="0 0 201.000000 201.000000"
 preserveAspectRatio="xMidYMid meet">
<metadata>
Created by potrace 1.11, written by Peter Selinger 2001-2013
</metadata>
<g transform="translate(0.000000,201.000000) scale(0.100000,-0.100000)"
fill="#000000" stroke="none">
<path d="M384 1978 c12 -21 325 -560 366 -633 9 -16 58 -101 108 -188 l92
-158 -164 -282 c-90 -155 -188 -325 -218 -377 -30 -52 -87 -150 -126 -217
l-71 -123 354 0 354 0 54 92 c30 51 80 138 112 193 174 302 209 361 278 481
88 153 107 195 107 240 0 42 -22 83 -313 584 l-235 405 -356 3 -357 2 15 -22z"/>
</g>
</svg>
